<svg xmlns="http://www.w3.org/2000/svg" width="64" height="64" viewBox="0 0 64 64" fill="none">
  <defs>
    <linearGradient id="g" x1="12" y1="8" x2="52" y2="56" gradientUnits="userSpaceOnUse">
      <stop stop-color="#7C5CFF"/>
      <stop offset="1" stop-color="#2EE9A6"/>
    </linearGradient>
  </defs>
  <rect x="8" y="8" width="48" height="48" rx="16" fill="url(#g)"/>
  <path d="M22 42V22h8.1c3.4 0 5.9.7 7.6 2.2 1.7 1.4 2.6 3.5 2.6 6.2 0 2.7-.9 4.8-2.6 6.3-1.7 1.5-4.2 2.3-7.6 2.3H22zm6-5h2.9c1.8 0 3.2-.5 4.2-1.4 1-.9 1.5-2.2 1.5-3.9 0-1.7-.5-3-1.5-3.9-1-.9-2.4-1.3-4.2-1.3H28v10.5z" fill="rgba(11,16,32,0.92)"/>
  <circle cx="46.5" cy="18" r="3" fill="rgba(11,16,32,0.9)"/>
</svg>
